<mxfile host="65bd71144e">
    <diagram id="0YxVyeKkL9jAX9HnK_fm" name="Page-1">
        <mxGraphModel dx="832" dy="307" grid="1" gridSize="10" guides="1" tooltips="1" connect="1" arrows="1" fold="1" page="1" pageScale="1" pageWidth="850" pageHeight="1100" math="0" shadow="0">
            <root>
                <mxCell id="0"/>
                <mxCell id="1" parent="0"/>
                <mxCell id="2" value="Ventana" style="swimlane;whiteSpace=wrap;html=1;startSize=50;" vertex="1" parent="1">
                    <mxGeometry x="140" y="110" width="200" height="160" as="geometry"/>
                </mxCell>
                <mxCell id="3" value="self.pared -- String&lt;br&gt;self.superficie -- int" style="text;html=1;align=center;verticalAlign=middle;resizable=0;points=[];autosize=1;strokeColor=none;fillColor=none;" vertex="1" parent="2">
                    <mxGeometry x="40" y="55" width="120" height="40" as="geometry"/>
                </mxCell>
                <mxCell id="4" value="" style="endArrow=none;html=1;" edge="1" parent="2">
                    <mxGeometry width="50" height="50" relative="1" as="geometry">
                        <mxPoint y="100" as="sourcePoint"/>
                        <mxPoint x="200" y="100" as="targetPoint"/>
                    </mxGeometry>
                </mxCell>
                <mxCell id="5" value="Pared" style="swimlane;whiteSpace=wrap;html=1;startSize=50;" vertex="1" parent="1">
                    <mxGeometry x="360" y="110" width="200" height="160" as="geometry"/>
                </mxCell>
                <mxCell id="6" value="self.orientacion -- String" style="text;html=1;align=center;verticalAlign=middle;resizable=0;points=[];autosize=1;strokeColor=none;fillColor=none;" vertex="1" parent="5">
                    <mxGeometry x="25" y="60" width="150" height="30" as="geometry"/>
                </mxCell>
                <mxCell id="7" value="" style="endArrow=none;html=1;" edge="1" parent="5">
                    <mxGeometry width="50" height="50" relative="1" as="geometry">
                        <mxPoint y="100" as="sourcePoint"/>
                        <mxPoint x="200" y="100" as="targetPoint"/>
                    </mxGeometry>
                </mxCell>
                <mxCell id="11" value="superficie_acristalada()" style="text;html=1;align=center;verticalAlign=middle;resizable=0;points=[];autosize=1;strokeColor=none;fillColor=none;" vertex="1" parent="5">
                    <mxGeometry x="25" y="110" width="150" height="30" as="geometry"/>
                </mxCell>
                <mxCell id="8" value="Casa" style="swimlane;whiteSpace=wrap;html=1;startSize=50;" vertex="1" parent="1">
                    <mxGeometry x="580" y="110" width="200" height="160" as="geometry"/>
                </mxCell>
                <mxCell id="9" value="self.paredes" style="text;html=1;align=center;verticalAlign=middle;resizable=0;points=[];autosize=1;strokeColor=none;fillColor=none;" vertex="1" parent="8">
                    <mxGeometry x="55" y="60" width="90" height="30" as="geometry"/>
                </mxCell>
                <mxCell id="10" value="" style="endArrow=none;html=1;" edge="1" parent="8">
                    <mxGeometry width="50" height="50" relative="1" as="geometry">
                        <mxPoint y="100" as="sourcePoint"/>
                        <mxPoint x="200" y="100" as="targetPoint"/>
                    </mxGeometry>
                </mxCell>
                <mxCell id="12" value="superficie_acristalada()" style="text;html=1;align=center;verticalAlign=middle;resizable=0;points=[];autosize=1;strokeColor=none;fillColor=none;" vertex="1" parent="1">
                    <mxGeometry x="595" y="225" width="150" height="30" as="geometry"/>
                </mxCell>
            </root>
        </mxGraphModel>
    </diagram>
</mxfile>